<?xml version="1.0" encoding="UTF-8" standalone="no"?>
<!-- Created with Inkscape (http://www.inkscape.org/) -->

<svg
   xmlns:dc="http://purl.org/dc/elements/1.1/"
   xmlns:cc="http://creativecommons.org/ns#"
   xmlns:rdf="http://www.w3.org/1999/02/22-rdf-syntax-ns#"
   xmlns:svg="http://www.w3.org/2000/svg"
   xmlns="http://www.w3.org/2000/svg"
   xmlns:sodipodi="http://sodipodi.sourceforge.net/DTD/sodipodi-0.dtd"
   xmlns:inkscape="http://www.inkscape.org/namespaces/inkscape"
   width="155"
   height="600"
   id="svg2"
   version="1.1"
   inkscape:version="0.48.5 r10040"
   sodipodi:docname="plano.svg">
  <defs
     id="defs4" />
  <sodipodi:namedview
     id="base"
     pagecolor="#ffffff"
     bordercolor="#666666"
     borderopacity="1.0"
     inkscape:pageopacity="0.0"
     inkscape:pageshadow="2"
     inkscape:zoom="1.2200956"
     inkscape:cx="242.65591"
     inkscape:cy="401.18964"
     inkscape:document-units="px"
     inkscape:current-layer="layer2"
     showgrid="false"
     inkscape:window-width="1440"
     inkscape:window-height="837"
     inkscape:window-x="-2"
     inkscape:window-y="-3"
     inkscape:window-maximized="1" />
  <metadata
     id="metadata7">
    <rdf:RDF>
      <cc:Work
         rdf:about="">
        <dc:format>image/svg+xml</dc:format>
        <dc:type
           rdf:resource="http://purl.org/dc/dcmitype/StillImage" />
      </cc:Work>
    </rdf:RDF>
  </metadata>
  <g
     inkscape:label="Base"
     inkscape:groupmode="layer"
     id="layer1"
     transform="translate(0,-452.36218)"
     style="display:inline">
    <rect
       style="fill:#ffffff;stroke:#000000;stroke-width:2.53000689;stroke-miterlimit:4;stroke-opacity:1;stroke-dasharray:none;stroke-dashoffset:0"
       id="lugar00"
       width="42.027603"
       height="42.027603"
       x="1008.9693"
       y="-151.08353"
       transform="matrix(0,1,-1,0,0,0)" />
    <rect
       style="fill:none;stroke:#000000;stroke-width:2.53000689;stroke-miterlimit:4;stroke-opacity:1;stroke-dasharray:none;stroke-dashoffset:0"
       id="rect2985"
       width="595.26801"
       height="147.03842"
       x="455.72903"
       y="-151.08353"
       transform="matrix(0,1,-1,0,0,0)" />
    <rect
       y="-151.08353"
       x="987.50873"
       height="31.224983"
       width="21.444031"
       id="rect3783"
       style="fill:none;stroke:#000000;stroke-width:2.53000689;stroke-miterlimit:4;stroke-opacity:1;stroke-dasharray:none;stroke-dashoffset:0"
       transform="matrix(0,1,-1,0,0,0)" />
  </g>
  <g
     inkscape:groupmode="layer"
     id="layer3"
     inkscape:label="Líneas"
     style="display:inline"
     transform="translate(0,-144.09448)">
    <path
       style="fill:none;stroke:#000000;stroke-width:0.84333563;stroke-linecap:butt;stroke-linejoin:miter;stroke-miterlimit:4;stroke-opacity:1;stroke-dasharray:none;display:inline"
       d="M 150.12709,187.4019 82.287095,255.24187"
       id="path3822"
       inkscape:connector-curvature="0" />
    <path
       inkscape:connector-curvature="0"
       id="path3824"
       d="M 150.12709,232.93599 82.287095,300.77594"
       style="fill:none;stroke:#000000;stroke-width:0.84333563;stroke-linecap:butt;stroke-linejoin:miter;stroke-miterlimit:4;stroke-opacity:1;stroke-dasharray:none;display:inline" />
    <path
       style="fill:none;stroke:#000000;stroke-width:0.84333563;stroke-linecap:butt;stroke-linejoin:miter;stroke-miterlimit:4;stroke-opacity:1;stroke-dasharray:none;display:inline"
       d="M 150.12709,278.47008 82.287095,346.31004"
       id="path3826"
       inkscape:connector-curvature="0" />
    <path
       inkscape:connector-curvature="0"
       id="path3828"
       d="M 150.12709,324.00415 82.287095,391.84412"
       style="fill:none;stroke:#000000;stroke-width:0.84333563;stroke-linecap:butt;stroke-linejoin:miter;stroke-miterlimit:4;stroke-opacity:1;stroke-dasharray:none;display:inline" />
    <path
       style="fill:none;stroke:#000000;stroke-width:0.84333563;stroke-linecap:butt;stroke-linejoin:miter;stroke-miterlimit:4;stroke-opacity:1;stroke-dasharray:none;display:inline"
       d="M 150.12709,369.11207 82.287095,436.95204"
       id="path3830"
       inkscape:connector-curvature="0" />
    <path
       inkscape:connector-curvature="0"
       id="path3832"
       d="M 150.12709,414.21997 82.287095,482.05995"
       style="fill:none;stroke:#000000;stroke-width:0.84333563;stroke-linecap:butt;stroke-linejoin:miter;stroke-miterlimit:4;stroke-opacity:1;stroke-dasharray:none;display:inline" />
    <path
       style="fill:none;stroke:#000000;stroke-width:0.84333563;stroke-linecap:butt;stroke-linejoin:miter;stroke-miterlimit:4;stroke-opacity:1;stroke-dasharray:none;display:inline"
       d="M 150.12709,460.60644 82.287095,528.44642"
       id="path3834"
       inkscape:connector-curvature="0" />
    <path
       inkscape:connector-curvature="0"
       id="path3836"
       d="M 150.12709,504.4358 82.287095,572.27577"
       style="fill:none;stroke:#000000;stroke-width:0.84333563;stroke-linecap:butt;stroke-linejoin:miter;stroke-miterlimit:4;stroke-opacity:1;stroke-dasharray:none;display:inline" />
    <path
       style="fill:none;stroke:#000000;stroke-width:0.84333563;stroke-linecap:butt;stroke-linejoin:miter;stroke-miterlimit:4;stroke-opacity:1;stroke-dasharray:none;display:inline"
       d="M 150.12709,549.9699 82.287095,617.80988"
       id="path3838"
       inkscape:connector-curvature="0" />
    <path
       inkscape:connector-curvature="0"
       id="path3840"
       d="M 150.12709,595.504 82.287095,663.34398"
       style="fill:none;stroke:#000000;stroke-width:0.84333563;stroke-linecap:butt;stroke-linejoin:miter;stroke-miterlimit:4;stroke-opacity:1;stroke-dasharray:none;display:inline" />
    <path
       style="fill:none;stroke:#000000;stroke-width:0.84333563px;stroke-linecap:butt;stroke-linejoin:miter;stroke-opacity:1;display:inline"
       d="m 4.4403004,228.25043 42.1929886,0"
       id="path3842"
       inkscape:connector-curvature="0" />
    <path
       inkscape:connector-curvature="0"
       id="path3844"
       d="m 4.4403004,310.20573 42.1929886,0"
       style="fill:none;stroke:#000000;stroke-width:0.84333563px;stroke-linecap:butt;stroke-linejoin:miter;stroke-opacity:1;display:inline" />
    <path
       style="fill:none;stroke:#000000;stroke-width:0.84333563px;stroke-linecap:butt;stroke-linejoin:miter;stroke-opacity:1;display:inline"
       d="m 4.4403004,393.12287 42.1929886,0"
       id="path3846"
       inkscape:connector-curvature="0" />
    <path
       inkscape:connector-curvature="0"
       id="path3848"
       d="m 4.4403004,476.04003 42.1929886,0"
       style="fill:none;stroke:#000000;stroke-width:0.84333563px;stroke-linecap:butt;stroke-linejoin:miter;stroke-opacity:1;display:inline" />
    <path
       style="fill:none;stroke:#000000;stroke-width:0.84333563px;stroke-linecap:butt;stroke-linejoin:miter;stroke-opacity:1;display:inline"
       d="m 4.4403004,558.95724 42.1929886,0"
       id="path3850"
       inkscape:connector-curvature="0" />
    <path
       inkscape:connector-curvature="0"
       id="path3852"
       d="m 4.4403004,641.87439 42.1929886,0"
       style="fill:none;stroke:#000000;stroke-width:0.84333563px;stroke-linecap:butt;stroke-linejoin:miter;stroke-opacity:1;display:inline" />
  </g>
  <g
     inkscape:groupmode="layer"
     id="layer5"
     inkscape:label="Etiquetas"
     style="display:inline"
     transform="translate(0,-144.09448)">
    <text
       xml:space="preserve"
       style="font-size:8.03745651px;font-style:normal;font-weight:normal;line-height:125%;letter-spacing:0px;word-spacing:0px;fill:#000000;fill-opacity:1;stroke:none;font-family:Sans"
       x="707.81488"
       y="-127.07331"
       id="lugar00_texto"
       sodipodi:linespacing="125%"
       transform="matrix(0,1,-1,0,0,0)"><tspan
         sodipodi:role="line"
         id="tspan4195"
         x="707.81488"
         y="-127.07331">Oficina</tspan></text>
    <text
       sodipodi:linespacing="125%"
       id="text4197"
       y="693.0282"
       x="125.06704"
       style="font-size:8.03745651px;font-style:normal;font-weight:normal;line-height:125%;letter-spacing:0px;word-spacing:0px;fill:#000000;fill-opacity:1;stroke:none;font-family:Sans"
       xml:space="preserve"><tspan
         y="693.0282"
         x="125.06704"
         id="tspan4199"
         sodipodi:role="line">Baño</tspan></text>
  </g>
  <g
     inkscape:groupmode="layer"
     id="layer2"
     inkscape:label="Autos esquemática"
     style="display:inline"
     transform="translate(0,-144.09448)">
    <rect
       style="fill:#ffffff;stroke:#000000;stroke-width:2.102;stroke-miterlimit:4;stroke-opacity:1;stroke-dasharray:none;stroke-dashoffset:0"
       id="lugar01"
       width="60.650433"
       height="23.297968"
       x="27.343313"
       y="-234.4684"
       transform="matrix(-0.70710678,0.70710678,-0.70710678,-0.70710678,0,0)"
       inkscape:label="#lugar01" />
    <rect
       transform="matrix(-0.70710678,0.70710678,-0.70710678,-0.70710678,0,0)"
       y="-266.50705"
       x="59.381908"
       height="23.297968"
       width="60.650433"
       id="lugar02"
       style="fill:#ffffff;stroke:#000000;stroke-width:2.10170627;stroke-miterlimit:4;stroke-opacity:1;stroke-dasharray:none;stroke-dashoffset:0;display:inline" />
    <rect
       style="fill:#ffffff;stroke:#000000;stroke-width:2.10170627;stroke-miterlimit:4;stroke-opacity:1;stroke-dasharray:none;stroke-dashoffset:0;display:inline"
       id="lugar03"
       width="60.650433"
       height="23.297968"
       x="91.420616"
       y="-298.54568"
       transform="matrix(-0.70710678,0.70710678,-0.70710678,-0.70710678,0,0)" />
    <rect
       transform="matrix(-0.70710678,0.70710678,-0.70710678,-0.70710678,0,0)"
       y="-330.58438"
       x="123.45924"
       height="23.297968"
       width="60.650433"
       id="lugar04"
       style="fill:#ffffff;stroke:#000000;stroke-width:2.10170627;stroke-miterlimit:4;stroke-opacity:1;stroke-dasharray:none;stroke-dashoffset:0;display:inline" />
    <rect
       style="fill:#ffffff;stroke:#000000;stroke-width:2.10170627;stroke-miterlimit:4;stroke-opacity:1;stroke-dasharray:none;stroke-dashoffset:0;display:inline"
       id="lugar05"
       width="60.650433"
       height="23.297968"
       x="155.49777"
       y="-362.62299"
       transform="matrix(-0.70710678,0.70710678,-0.70710678,-0.70710678,0,0)" />
    <rect
       transform="matrix(-0.70710678,0.70710678,-0.70710678,-0.70710678,0,0)"
       y="-394.66162"
       x="187.53656"
       height="23.297968"
       width="60.650433"
       id="lugar06"
       style="fill:#ffffff;stroke:#000000;stroke-width:2.10170627;stroke-miterlimit:4;stroke-opacity:1;stroke-dasharray:none;stroke-dashoffset:0;display:inline" />
    <rect
       style="fill:#ffffff;stroke:#000000;stroke-width:2.10170627;stroke-miterlimit:4;stroke-opacity:1;stroke-dasharray:none;stroke-dashoffset:0;display:inline"
       id="lugar07"
       width="60.650433"
       height="23.297968"
       x="219.57518"
       y="-426.70035"
       transform="matrix(-0.70710678,0.70710678,-0.70710678,-0.70710678,0,0)" />
    <rect
       transform="matrix(-0.70710678,0.70710678,-0.70710678,-0.70710678,0,0)"
       y="-458.73889"
       x="251.61369"
       height="23.297968"
       width="60.650433"
       id="lugar08"
       style="fill:#ffffff;stroke:#000000;stroke-width:2.10170627;stroke-miterlimit:4;stroke-opacity:1;stroke-dasharray:none;stroke-dashoffset:0;display:inline" />
    <rect
       style="fill:#ffffff;stroke:#000000;stroke-width:2.10170627;stroke-miterlimit:4;stroke-opacity:1;stroke-dasharray:none;stroke-dashoffset:0;display:inline"
       id="lugar09"
       width="60.650433"
       height="23.297968"
       x="283.65244"
       y="-490.77747"
       transform="matrix(-0.70710678,0.70710678,-0.70710678,-0.70710678,0,0)" />
    <rect
       transform="matrix(-0.70710678,0.70710678,-0.70710678,-0.70710678,0,0)"
       y="-522.8161"
       x="315.69119"
       height="23.297968"
       width="60.650433"
       id="lugar10"
       style="fill:#ffffff;stroke:#000000;stroke-width:2.10170627;stroke-miterlimit:4;stroke-opacity:1;stroke-dasharray:none;stroke-dashoffset:0;display:inline"
       inkscape:label="#lugar10" />
    <rect
       style="fill:#ffffff;stroke:#000000;stroke-width:2.10170627;stroke-miterlimit:4;stroke-opacity:1;stroke-dasharray:none;stroke-dashoffset:0;display:inline"
       id="lugar11"
       width="60.650433"
       height="23.297968"
       x="347.72968"
       y="-554.8548"
       transform="matrix(-0.70710678,0.70710678,-0.70710678,-0.70710678,0,0)" />
    <rect
       style="fill:#ffffff;stroke:#000000;stroke-width:2.10170627;stroke-miterlimit:4;stroke-opacity:1;stroke-dasharray:none;stroke-dashoffset:0;display:inline"
       id="lugar19"
       width="60.650433"
       height="23.297968"
       x="155.74425"
       y="-79.491638"
       transform="matrix(0,1,-1,0,0,0)" />
    <rect
       y="-36.207836"
       x="156.67889"
       height="23.297968"
       width="60.650433"
       id="lugar12"
       style="fill:#ffffff;stroke:#000000;stroke-width:2.10170627;stroke-miterlimit:4;stroke-opacity:1;stroke-dasharray:none;stroke-dashoffset:0;display:inline"
       transform="matrix(0,1,-1,0,0,0)" />
    <rect
       y="-36.207836"
       x="239.4864"
       height="23.297968"
       width="60.650433"
       id="lugar13"
       style="fill:#ffffff;stroke:#000000;stroke-width:2.10170627;stroke-miterlimit:4;stroke-opacity:1;stroke-dasharray:none;stroke-dashoffset:0;display:inline"
       transform="matrix(0,1,-1,0,0,0)" />
    <rect
       y="-36.207836"
       x="322.29401"
       height="23.297968"
       width="60.650433"
       id="lugar14"
       style="fill:#ffffff;stroke:#000000;stroke-width:2.10170627;stroke-miterlimit:4;stroke-opacity:1;stroke-dasharray:none;stroke-dashoffset:0;display:inline"
       transform="matrix(0,1,-1,0,0,0)" />
    <rect
       style="fill:#ffffff;stroke:#000000;stroke-width:2.10170627;stroke-miterlimit:4;stroke-opacity:1;stroke-dasharray:none;stroke-dashoffset:0;display:inline"
       id="lugar15"
       width="60.650433"
       height="23.297968"
       x="405.1015"
       y="-36.207836"
       transform="matrix(0,1,-1,0,0,0)" />
    <rect
       y="-36.207836"
       x="487.90903"
       height="23.297968"
       width="60.650433"
       id="lugar16"
       style="fill:#ffffff;stroke:#000000;stroke-width:2.10170627;stroke-miterlimit:4;stroke-opacity:1;stroke-dasharray:none;stroke-dashoffset:0;display:inline"
       transform="matrix(0,1,-1,0,0,0)"
       inkscape:label="lugar16" />
    <rect
       style="fill:#ffffff;stroke:#000000;stroke-width:2.10170627;stroke-miterlimit:4;stroke-opacity:1;stroke-dasharray:none;stroke-dashoffset:0;display:inline"
       id="lugar17"
       width="60.650433"
       height="23.297968"
       x="570.71655"
       y="-36.207836"
       transform="matrix(0,1,-1,0,0,0)" />
    <rect
       y="-36.207836"
       x="653.52411"
       height="23.297968"
       width="60.650433"
       id="lugar18"
       style="fill:#ffffff;stroke:#000000;stroke-width:2.10170627;stroke-miterlimit:4;stroke-opacity:1;stroke-dasharray:none;stroke-dashoffset:0;display:inline"
       transform="matrix(0,1,-1,0,0,0)" />
  </g>
  <g
     inkscape:groupmode="layer"
     id="layer4"
     inkscape:label="Números"
     style="display:inline"
     transform="translate(0,-144.09448)">
    <g
       id="lugar01_texto"
       transform="matrix(0,0.8433356,-0.8433356,0,213.05533,55.975545)"
       style="stroke-width:0.2;stroke-miterlimit:8.0037365;stroke-dasharray:none">
      <path
         sodipodi:type="arc"
         style="fill:#000000;stroke:#000000;stroke-width:0.2;stroke-miterlimit:8.0037365;stroke-opacity:1;stroke-dasharray:none;stroke-dashoffset:0;display:inline"
         id="path3910"
         sodipodi:cx="118.51339"
         sodipodi:cy="41.100952"
         sodipodi:rx="9.7599258"
         sodipodi:ry="9.7599258"
         d="m 128.27332,41.100952 c 0,5.390258 -4.36967,9.759926 -9.75993,9.759926 -5.39026,0 -9.75993,-4.369668 -9.75993,-9.759926 0,-5.390258 4.36967,-9.759926 9.75993,-9.759926 5.39026,0 9.75993,4.369668 9.75993,9.759926 z"
         transform="translate(50.29178,73.060018)" />
      <text
         sodipodi:linespacing="125%"
         id="text3946"
         y="118.52914"
         x="168.78619"
         style="font-size:12px;font-style:normal;font-variant:normal;font-weight:normal;font-stretch:normal;text-align:center;line-height:125%;letter-spacing:0px;word-spacing:0px;writing-mode:lr-tb;text-anchor:middle;fill:#ffffff;fill-opacity:1;stroke:none;font-family:Sans;-inkscape-font-specification:Sans"
         xml:space="preserve"><tspan
           id="tspan3952"
           sodipodi:role="line"
           x="168.78619"
           y="118.52914">1</tspan></text>
    </g>
    <g
       id="lugar02_texto"
       transform="matrix(0,0.8433356,-0.8433356,0,213.05536,101.285)">
      <path
         transform="translate(50.29178,73.060018)"
         d="m 128.27332,41.100952 c 0,5.390258 -4.36967,9.759926 -9.75993,9.759926 -5.39026,0 -9.75993,-4.369668 -9.75993,-9.759926 0,-5.390258 4.36967,-9.759926 9.75993,-9.759926 5.39026,0 9.75993,4.369668 9.75993,9.759926 z"
         sodipodi:ry="9.7599258"
         sodipodi:rx="9.7599258"
         sodipodi:cy="41.100952"
         sodipodi:cx="118.51339"
         id="path3961"
         style="fill:#000000;stroke:#000000;stroke-width:1;stroke-miterlimit:4;stroke-opacity:1;stroke-dasharray:none;stroke-dashoffset:0;display:inline"
         sodipodi:type="arc" />
      <text
         xml:space="preserve"
         style="font-size:12px;font-style:normal;font-variant:normal;font-weight:normal;font-stretch:normal;text-align:center;line-height:125%;letter-spacing:0px;word-spacing:0px;writing-mode:lr-tb;text-anchor:middle;fill:#ffffff;fill-opacity:1;stroke:none;font-family:Sans;-inkscape-font-specification:Sans"
         x="168.78619"
         y="118.52914"
         id="text3963"
         sodipodi:linespacing="125%"><tspan
           sodipodi:role="line"
           id="tspan4023"
           x="168.78619"
           y="118.52914">2</tspan></text>
    </g>
    <g
       transform="matrix(0,0.8433356,-0.8433356,0,213.05537,146.5945)"
       id="lugar03_texto">
      <path
         sodipodi:type="arc"
         style="fill:#000000;stroke:#000000;stroke-width:1;stroke-miterlimit:4;stroke-opacity:1;stroke-dasharray:none;stroke-dashoffset:0;display:inline"
         id="path3969"
         sodipodi:cx="118.51339"
         sodipodi:cy="41.100952"
         sodipodi:rx="9.7599258"
         sodipodi:ry="9.7599258"
         d="m 128.27332,41.100952 c 0,5.390258 -4.36967,9.759926 -9.75993,9.759926 -5.39026,0 -9.75993,-4.369668 -9.75993,-9.759926 0,-5.390258 4.36967,-9.759926 9.75993,-9.759926 5.39026,0 9.75993,4.369668 9.75993,9.759926 z"
         transform="translate(50.29178,73.060018)" />
      <text
         sodipodi:linespacing="125%"
         id="text3971"
         y="118.52914"
         x="168.78619"
         style="font-size:12px;font-style:normal;font-variant:normal;font-weight:normal;font-stretch:normal;text-align:center;line-height:125%;letter-spacing:0px;word-spacing:0px;writing-mode:lr-tb;text-anchor:middle;fill:#ffffff;fill-opacity:1;stroke:none;font-family:Sans;-inkscape-font-specification:Sans"
         xml:space="preserve"><tspan
           sodipodi:role="line"
           id="tspan4025"
           x="168.78619"
           y="118.52914">3</tspan></text>
    </g>
    <g
       id="lugar04_texto"
       transform="matrix(0,0.8433356,-0.8433356,0,213.05541,191.90396)">
      <path
         transform="translate(50.29178,73.060018)"
         d="m 128.27332,41.100952 c 0,5.390258 -4.36967,9.759926 -9.75993,9.759926 -5.39026,0 -9.75993,-4.369668 -9.75993,-9.759926 0,-5.390258 4.36967,-9.759926 9.75993,-9.759926 5.39026,0 9.75993,4.369668 9.75993,9.759926 z"
         sodipodi:ry="9.7599258"
         sodipodi:rx="9.7599258"
         sodipodi:cy="41.100952"
         sodipodi:cx="118.51339"
         id="path3977"
         style="fill:#000000;stroke:#000000;stroke-width:1;stroke-miterlimit:4;stroke-opacity:1;stroke-dasharray:none;stroke-dashoffset:0;display:inline"
         sodipodi:type="arc" />
      <text
         xml:space="preserve"
         style="font-size:12px;font-style:normal;font-variant:normal;font-weight:normal;font-stretch:normal;text-align:center;line-height:125%;letter-spacing:0px;word-spacing:0px;writing-mode:lr-tb;text-anchor:middle;fill:#ffffff;fill-opacity:1;stroke:none;font-family:Sans;-inkscape-font-specification:Sans"
         x="168.78619"
         y="118.52914"
         id="text3979"
         sodipodi:linespacing="125%"><tspan
           sodipodi:role="line"
           id="tspan4027"
           x="168.78619"
           y="118.52914">4</tspan></text>
    </g>
    <g
       transform="matrix(0,0.8433356,-0.8433356,0,213.05541,237.2134)"
       id="lugar05_texto">
      <path
         sodipodi:type="arc"
         style="fill:#000000;stroke:#000000;stroke-width:1;stroke-miterlimit:4;stroke-opacity:1;stroke-dasharray:none;stroke-dashoffset:0;display:inline"
         id="path3985"
         sodipodi:cx="118.51339"
         sodipodi:cy="41.100952"
         sodipodi:rx="9.7599258"
         sodipodi:ry="9.7599258"
         d="m 128.27332,41.100952 c 0,5.390258 -4.36967,9.759926 -9.75993,9.759926 -5.39026,0 -9.75993,-4.369668 -9.75993,-9.759926 0,-5.390258 4.36967,-9.759926 9.75993,-9.759926 5.39026,0 9.75993,4.369668 9.75993,9.759926 z"
         transform="translate(50.29178,73.060018)" />
      <text
         sodipodi:linespacing="125%"
         id="text3987"
         y="118.52914"
         x="168.78619"
         style="font-size:12px;font-style:normal;font-variant:normal;font-weight:normal;font-stretch:normal;text-align:center;line-height:125%;letter-spacing:0px;word-spacing:0px;writing-mode:lr-tb;text-anchor:middle;fill:#ffffff;fill-opacity:1;stroke:none;font-family:Sans;-inkscape-font-specification:Sans"
         xml:space="preserve"><tspan
           sodipodi:role="line"
           id="tspan4029"
           x="168.78619"
           y="118.52914">5</tspan></text>
    </g>
    <g
       id="lugar06_texto"
       transform="matrix(0,0.8433356,-0.8433356,0,213.05535,282.52297)">
      <path
         transform="translate(50.29178,73.060018)"
         d="m 128.27332,41.100952 c 0,5.390258 -4.36967,9.759926 -9.75993,9.759926 -5.39026,0 -9.75993,-4.369668 -9.75993,-9.759926 0,-5.390258 4.36967,-9.759926 9.75993,-9.759926 5.39026,0 9.75993,4.369668 9.75993,9.759926 z"
         sodipodi:ry="9.7599258"
         sodipodi:rx="9.7599258"
         sodipodi:cy="41.100952"
         sodipodi:cx="118.51339"
         id="path3993"
         style="fill:#000000;stroke:#000000;stroke-width:1;stroke-miterlimit:4;stroke-opacity:1;stroke-dasharray:none;stroke-dashoffset:0;display:inline"
         sodipodi:type="arc" />
      <text
         xml:space="preserve"
         style="font-size:12px;font-style:normal;font-variant:normal;font-weight:normal;font-stretch:normal;text-align:center;line-height:125%;letter-spacing:0px;word-spacing:0px;writing-mode:lr-tb;text-anchor:middle;fill:#ffffff;fill-opacity:1;stroke:none;font-family:Sans;-inkscape-font-specification:Sans"
         x="168.78619"
         y="118.52914"
         id="text3995"
         sodipodi:linespacing="125%"><tspan
           sodipodi:role="line"
           id="tspan4031"
           x="168.78619"
           y="118.52914">6</tspan></text>
    </g>
    <g
       transform="matrix(0,0.8433356,-0.8433356,0,213.05535,327.83249)"
       id="lugar07_texto">
      <path
         sodipodi:type="arc"
         style="fill:#000000;stroke:#000000;stroke-width:1;stroke-miterlimit:4;stroke-opacity:1;stroke-dasharray:none;stroke-dashoffset:0;display:inline"
         id="path4001"
         sodipodi:cx="118.51339"
         sodipodi:cy="41.100952"
         sodipodi:rx="9.7599258"
         sodipodi:ry="9.7599258"
         d="m 128.27332,41.100952 c 0,5.390258 -4.36967,9.759926 -9.75993,9.759926 -5.39026,0 -9.75993,-4.369668 -9.75993,-9.759926 0,-5.390258 4.36967,-9.759926 9.75993,-9.759926 5.39026,0 9.75993,4.369668 9.75993,9.759926 z"
         transform="translate(50.29178,73.060018)" />
      <text
         sodipodi:linespacing="125%"
         id="text4003"
         y="118.52914"
         x="168.78619"
         style="font-size:12px;font-style:normal;font-variant:normal;font-weight:normal;font-stretch:normal;text-align:center;line-height:125%;letter-spacing:0px;word-spacing:0px;writing-mode:lr-tb;text-anchor:middle;fill:#ffffff;fill-opacity:1;stroke:none;font-family:Sans;-inkscape-font-specification:Sans"
         xml:space="preserve"><tspan
           sodipodi:role="line"
           id="tspan4033"
           x="168.78619"
           y="118.52914">7</tspan></text>
    </g>
    <g
       id="lugar08_texto"
       transform="matrix(0,0.8433356,-0.8433356,0,213.05541,373.14182)">
      <path
         transform="translate(50.29178,73.060018)"
         d="m 128.27332,41.100952 c 0,5.390258 -4.36967,9.759926 -9.75993,9.759926 -5.39026,0 -9.75993,-4.369668 -9.75993,-9.759926 0,-5.390258 4.36967,-9.759926 9.75993,-9.759926 5.39026,0 9.75993,4.369668 9.75993,9.759926 z"
         sodipodi:ry="9.7599258"
         sodipodi:rx="9.7599258"
         sodipodi:cy="41.100952"
         sodipodi:cx="118.51339"
         id="path4009"
         style="fill:#000000;stroke:#000000;stroke-width:1;stroke-miterlimit:4;stroke-opacity:1;stroke-dasharray:none;stroke-dashoffset:0;display:inline"
         sodipodi:type="arc" />
      <text
         xml:space="preserve"
         style="font-size:12px;font-style:normal;font-variant:normal;font-weight:normal;font-stretch:normal;text-align:center;line-height:125%;letter-spacing:0px;word-spacing:0px;writing-mode:lr-tb;text-anchor:middle;fill:#ffffff;fill-opacity:1;stroke:none;font-family:Sans;-inkscape-font-specification:Sans"
         x="168.78619"
         y="118.52914"
         id="text4011"
         sodipodi:linespacing="125%"><tspan
           sodipodi:role="line"
           id="tspan4035"
           x="168.78619"
           y="118.52914">8</tspan></text>
    </g>
    <g
       id="lugar10_texto"
       transform="matrix(0,0.8433356,-0.8433356,0,213.05522,463.76088)">
      <path
         transform="translate(50.29178,73.060018)"
         d="m 128.27332,41.100952 c 0,5.390258 -4.36967,9.759926 -9.75993,9.759926 -5.39026,0 -9.75993,-4.369668 -9.75993,-9.759926 0,-5.390258 4.36967,-9.759926 9.75993,-9.759926 5.39026,0 9.75993,4.369668 9.75993,9.759926 z"
         sodipodi:ry="9.7599258"
         sodipodi:rx="9.7599258"
         sodipodi:cy="41.100952"
         sodipodi:cx="118.51339"
         id="path4041"
         style="fill:#000000;stroke:#000000;stroke-width:1;stroke-miterlimit:4;stroke-opacity:1;stroke-dasharray:none;stroke-dashoffset:0;display:inline"
         sodipodi:type="arc" />
      <text
         xml:space="preserve"
         style="font-size:12px;font-style:normal;font-variant:normal;font-weight:normal;font-stretch:normal;text-align:center;line-height:125%;letter-spacing:0px;word-spacing:0px;writing-mode:lr-tb;text-anchor:middle;fill:#ffffff;fill-opacity:1;stroke:none;font-family:Sans;-inkscape-font-specification:Sans"
         x="168.78619"
         y="118.52914"
         id="text4043"
         sodipodi:linespacing="125%"><tspan
           sodipodi:role="line"
           id="tspan4057"
           x="168.78619"
           y="118.52914">10</tspan></text>
    </g>
    <g
       transform="matrix(0,0.8433356,-0.8433356,0,213.05519,509.07038)"
       id="lugar11_texto">
      <path
         sodipodi:type="arc"
         style="fill:#000000;stroke:#000000;stroke-width:1;stroke-miterlimit:4;stroke-opacity:1;stroke-dasharray:none;stroke-dashoffset:0;display:inline"
         id="path4049"
         sodipodi:cx="118.51339"
         sodipodi:cy="41.100952"
         sodipodi:rx="9.7599258"
         sodipodi:ry="9.7599258"
         d="m 128.27332,41.100952 c 0,5.390258 -4.36967,9.759926 -9.75993,9.759926 -5.39026,0 -9.75993,-4.369668 -9.75993,-9.759926 0,-5.390258 4.36967,-9.759926 9.75993,-9.759926 5.39026,0 9.75993,4.369668 9.75993,9.759926 z"
         transform="translate(50.29178,73.060018)" />
      <text
         sodipodi:linespacing="125%"
         id="text4051"
         y="118.52914"
         x="168.78619"
         style="font-size:12px;font-style:normal;font-variant:normal;font-weight:normal;font-stretch:normal;text-align:center;line-height:125%;letter-spacing:0px;word-spacing:0px;writing-mode:lr-tb;text-anchor:middle;fill:#ffffff;fill-opacity:1;stroke:none;font-family:Sans;-inkscape-font-specification:Sans"
         xml:space="preserve"><tspan
           sodipodi:role="line"
           id="tspan4055"
           x="168.78619"
           y="118.52914">11</tspan></text>
    </g>
    <g
       id="lugar19_texto"
       transform="matrix(0,0.8433356,-0.8433356,0,165.09665,44.057155)"
       style="display:inline">
      <path
         sodipodi:type="arc"
         style="fill:#000000;stroke:#000000;stroke-width:1;stroke-miterlimit:4;stroke-opacity:1;stroke-dasharray:none;stroke-dashoffset:0;display:inline"
         id="path4172"
         sodipodi:cx="118.51339"
         sodipodi:cy="41.100952"
         sodipodi:rx="9.7599258"
         sodipodi:ry="9.7599258"
         d="m 128.27332,41.100952 c 0,5.390258 -4.36967,9.759926 -9.75993,9.759926 -5.39026,0 -9.75993,-4.369668 -9.75993,-9.759926 0,-5.390258 4.36967,-9.759926 9.75993,-9.759926 5.39026,0 9.75993,4.369668 9.75993,9.759926 z"
         transform="translate(50.29178,73.060018)" />
      <text
         sodipodi:linespacing="125%"
         id="text4174"
         y="118.52914"
         x="168.78619"
         style="font-size:12px;font-style:normal;font-variant:normal;font-weight:normal;font-stretch:normal;text-align:center;line-height:125%;letter-spacing:0px;word-spacing:0px;writing-mode:lr-tb;text-anchor:middle;fill:#ffffff;fill-opacity:1;stroke:none;font-family:Sans;-inkscape-font-specification:Sans"
         xml:space="preserve"><tspan
           sodipodi:role="line"
           id="tspan4190"
           x="168.78619"
           y="118.52914">19</tspan></text>
    </g>
    <g
       style="display:inline"
       transform="matrix(0,0.8433356,-0.8433356,0,121.81281,43.535415)"
       id="lugar12_texto">
      <path
         transform="translate(50.29178,73.060018)"
         d="m 128.27332,41.100952 c 0,5.390258 -4.36967,9.759926 -9.75993,9.759926 -5.39026,0 -9.75993,-4.369668 -9.75993,-9.759926 0,-5.390258 4.36967,-9.759926 9.75993,-9.759926 5.39026,0 9.75993,4.369668 9.75993,9.759926 z"
         sodipodi:ry="9.7599258"
         sodipodi:rx="9.7599258"
         sodipodi:cy="41.100952"
         sodipodi:cx="118.51339"
         id="path4061"
         style="fill:#000000;stroke:#000000;stroke-width:1;stroke-miterlimit:4;stroke-opacity:1;stroke-dasharray:none;stroke-dashoffset:0;display:inline"
         sodipodi:type="arc" />
      <text
         xml:space="preserve"
         style="font-size:12px;font-style:normal;font-variant:normal;font-weight:normal;font-stretch:normal;text-align:center;line-height:125%;letter-spacing:0px;word-spacing:0px;writing-mode:lr-tb;text-anchor:middle;fill:#ffffff;fill-opacity:1;stroke:none;font-family:Sans;-inkscape-font-specification:Sans"
         x="168.78619"
         y="118.52914"
         id="text4063"
         sodipodi:linespacing="125%"><tspan
           sodipodi:role="line"
           id="tspan4120"
           x="168.78619"
           y="118.52914">12</tspan></text>
    </g>
    <g
       style="display:inline"
       transform="matrix(0,0.8433356,-0.8433356,0,120.83482,210.25977)"
       id="lugar14_texto">
      <path
         transform="translate(50.29178,73.060018)"
         d="m 128.27332,41.100952 c 0,5.390258 -4.36967,9.759926 -9.75993,9.759926 -5.39026,0 -9.75993,-4.369668 -9.75993,-9.759926 0,-5.390258 4.36967,-9.759926 9.75993,-9.759926 5.39026,0 9.75993,4.369668 9.75993,9.759926 z"
         sodipodi:ry="9.7599258"
         sodipodi:rx="9.7599258"
         sodipodi:cy="41.100952"
         sodipodi:cx="118.51339"
         id="path4132"
         style="fill:#000000;stroke:#000000;stroke-width:1;stroke-miterlimit:4;stroke-opacity:1;stroke-dasharray:none;stroke-dashoffset:0;display:inline"
         sodipodi:type="arc" />
      <text
         xml:space="preserve"
         style="font-size:12px;font-style:normal;font-variant:normal;font-weight:normal;font-stretch:normal;text-align:center;line-height:125%;letter-spacing:0px;word-spacing:0px;writing-mode:lr-tb;text-anchor:middle;fill:#ffffff;fill-opacity:1;stroke:none;font-family:Sans;-inkscape-font-specification:Sans"
         x="168.78619"
         y="118.52914"
         id="text4134"
         sodipodi:linespacing="125%"><tspan
           sodipodi:role="line"
           id="tspan4180"
           x="168.78619"
           y="118.52914">14</tspan></text>
    </g>
    <g
       id="lugar15_texto"
       transform="matrix(0,0.8433356,-0.8433356,0,120.83482,293.06731)"
       style="display:inline">
      <path
         sodipodi:type="arc"
         style="fill:#000000;stroke:#000000;stroke-width:1;stroke-miterlimit:4;stroke-opacity:1;stroke-dasharray:none;stroke-dashoffset:0;display:inline"
         id="path4140"
         sodipodi:cx="118.51339"
         sodipodi:cy="41.100952"
         sodipodi:rx="9.7599258"
         sodipodi:ry="9.7599258"
         d="m 128.27332,41.100952 c 0,5.390258 -4.36967,9.759926 -9.75993,9.759926 -5.39026,0 -9.75993,-4.369668 -9.75993,-9.759926 0,-5.390258 4.36967,-9.759926 9.75993,-9.759926 5.39026,0 9.75993,4.369668 9.75993,9.759926 z"
         transform="translate(50.29178,73.060018)" />
      <text
         sodipodi:linespacing="125%"
         id="text4142"
         y="118.52914"
         x="168.78619"
         style="font-size:12px;font-style:normal;font-variant:normal;font-weight:normal;font-stretch:normal;text-align:center;line-height:125%;letter-spacing:0px;word-spacing:0px;writing-mode:lr-tb;text-anchor:middle;fill:#ffffff;fill-opacity:1;stroke:none;font-family:Sans;-inkscape-font-specification:Sans"
         xml:space="preserve"><tspan
           sodipodi:role="line"
           id="tspan4182"
           x="168.78619"
           y="118.52914">15</tspan></text>
    </g>
    <g
       style="display:inline"
       transform="matrix(0,0.8433356,-0.8433356,0,120.83482,375.87481)"
       id="lugar16_texto">
      <path
         transform="translate(50.29178,73.060018)"
         d="m 128.27332,41.100952 c 0,5.390258 -4.36967,9.759926 -9.75993,9.759926 -5.39026,0 -9.75993,-4.369668 -9.75993,-9.759926 0,-5.390258 4.36967,-9.759926 9.75993,-9.759926 5.39026,0 9.75993,4.369668 9.75993,9.759926 z"
         sodipodi:ry="9.7599258"
         sodipodi:rx="9.7599258"
         sodipodi:cy="41.100952"
         sodipodi:cx="118.51339"
         id="path4148"
         style="fill:#000000;stroke:#000000;stroke-width:1;stroke-miterlimit:4;stroke-opacity:1;stroke-dasharray:none;stroke-dashoffset:0;display:inline"
         sodipodi:type="arc" />
      <text
         xml:space="preserve"
         style="font-size:12px;font-style:normal;font-variant:normal;font-weight:normal;font-stretch:normal;text-align:center;line-height:125%;letter-spacing:0px;word-spacing:0px;writing-mode:lr-tb;text-anchor:middle;fill:#ffffff;fill-opacity:1;stroke:none;font-family:Sans;-inkscape-font-specification:Sans"
         x="168.78619"
         y="118.52914"
         id="text4150"
         sodipodi:linespacing="125%"><tspan
           sodipodi:role="line"
           id="tspan4184"
           x="168.78619"
           y="118.52914">16</tspan></text>
    </g>
    <g
       id="lugar17_texto"
       transform="matrix(0,0.8433356,-0.8433356,0,120.83482,458.68235)"
       style="display:inline">
      <path
         sodipodi:type="arc"
         style="fill:#000000;stroke:#000000;stroke-width:1;stroke-miterlimit:4;stroke-opacity:1;stroke-dasharray:none;stroke-dashoffset:0;display:inline"
         id="path4156"
         sodipodi:cx="118.51339"
         sodipodi:cy="41.100952"
         sodipodi:rx="9.7599258"
         sodipodi:ry="9.7599258"
         d="m 128.27332,41.100952 c 0,5.390258 -4.36967,9.759926 -9.75993,9.759926 -5.39026,0 -9.75993,-4.369668 -9.75993,-9.759926 0,-5.390258 4.36967,-9.759926 9.75993,-9.759926 5.39026,0 9.75993,4.369668 9.75993,9.759926 z"
         transform="translate(50.29178,73.060018)" />
      <text
         sodipodi:linespacing="125%"
         id="text4158"
         y="118.52914"
         x="168.78619"
         style="font-size:12px;font-style:normal;font-variant:normal;font-weight:normal;font-stretch:normal;text-align:center;line-height:125%;letter-spacing:0px;word-spacing:0px;writing-mode:lr-tb;text-anchor:middle;fill:#ffffff;fill-opacity:1;stroke:none;font-family:Sans;-inkscape-font-specification:Sans"
         xml:space="preserve"><tspan
           sodipodi:role="line"
           id="tspan4186"
           x="168.78619"
           y="118.52914">17</tspan></text>
    </g>
    <g
       style="display:inline"
       id="lugar13_texto"
       transform="matrix(0,0.8433356,-0.8433356,0,302.90578,7.9309092)">
      <g
         style="display:inline"
         transform="translate(141.7245,215.89384)"
         id="g4122">
        <path
           transform="translate(50.29178,73.060018)"
           d="m 128.27332,41.100952 c 0,5.390258 -4.36967,9.759926 -9.75993,9.759926 -5.39026,0 -9.75993,-4.369668 -9.75993,-9.759926 0,-5.390258 4.36967,-9.759926 9.75993,-9.759926 5.39026,0 9.75993,4.369668 9.75993,9.759926 z"
           sodipodi:ry="9.7599258"
           sodipodi:rx="9.7599258"
           sodipodi:cy="41.100952"
           sodipodi:cx="118.51339"
           id="path4124"
           style="fill:#000000;stroke:#000000;stroke-width:1;stroke-miterlimit:4;stroke-opacity:1;stroke-dasharray:none;stroke-dashoffset:0;display:inline"
           sodipodi:type="arc" />
        <text
           xml:space="preserve"
           style="font-size:12px;font-style:normal;font-variant:normal;font-weight:normal;font-stretch:normal;text-align:center;line-height:125%;letter-spacing:0px;word-spacing:0px;writing-mode:lr-tb;text-anchor:middle;fill:#ffffff;fill-opacity:1;stroke:none;font-family:Sans;-inkscape-font-specification:Sans"
           x="168.78619"
           y="118.52914"
           id="text4126"
           sodipodi:linespacing="125%"><tspan
             y="118.52914"
             x="168.78619"
             id="tspan4178"
             sodipodi:role="line">13</tspan></text>
      </g>
    </g>
    <g
       transform="matrix(0,0.8433356,-0.8433356,0,213.05525,418.45134)"
       id="lugar09_texto">
      <path
         sodipodi:type="arc"
         style="fill:#000000;stroke:#000000;stroke-width:1;stroke-miterlimit:4;stroke-opacity:1;stroke-dasharray:none;stroke-dashoffset:0;display:inline"
         id="path4017"
         sodipodi:cx="118.51339"
         sodipodi:cy="41.100952"
         sodipodi:rx="9.7599258"
         sodipodi:ry="9.7599258"
         d="m 128.27332,41.100952 c 0,5.390258 -4.36967,9.759926 -9.75993,9.759926 -5.39026,0 -9.75993,-4.369668 -9.75993,-9.759926 0,-5.390258 4.36967,-9.759926 9.75993,-9.759926 5.39026,0 9.75993,4.369668 9.75993,9.759926 z"
         transform="translate(50.29178,73.060018)" />
      <text
         sodipodi:linespacing="125%"
         id="text4019"
         y="118.52914"
         x="168.78619"
         style="font-size:12px;font-style:normal;font-variant:normal;font-weight:normal;font-stretch:normal;text-align:center;line-height:125%;letter-spacing:0px;word-spacing:0px;writing-mode:lr-tb;text-anchor:middle;fill:#ffffff;fill-opacity:1;stroke:none;font-family:Sans;-inkscape-font-specification:Sans"
         xml:space="preserve"><tspan
           sodipodi:role="line"
           id="tspan4037"
           x="168.78619"
           y="118.52914">9</tspan></text>
    </g>
    <g
       style="display:inline"
       transform="matrix(0,0.8433356,-0.8433356,0,120.83482,541.4899)"
       id="lugar18_texto">
      <path
         transform="translate(50.29178,73.060018)"
         d="m 128.27332,41.100952 c 0,5.390258 -4.36967,9.759926 -9.75993,9.759926 -5.39026,0 -9.75993,-4.369668 -9.75993,-9.759926 0,-5.390258 4.36967,-9.759926 9.75993,-9.759926 5.39026,0 9.75993,4.369668 9.75993,9.759926 z"
         sodipodi:ry="9.7599258"
         sodipodi:rx="9.7599258"
         sodipodi:cy="41.100952"
         sodipodi:cx="118.51339"
         id="path4164"
         style="fill:#000000;stroke:#000000;stroke-width:1;stroke-miterlimit:4;stroke-opacity:1;stroke-dasharray:none;stroke-dashoffset:0;display:inline"
         sodipodi:type="arc" />
      <text
         xml:space="preserve"
         style="font-size:12px;font-style:normal;font-variant:normal;font-weight:normal;font-stretch:normal;text-align:center;line-height:125%;letter-spacing:0px;word-spacing:0px;writing-mode:lr-tb;text-anchor:middle;fill:#ffffff;fill-opacity:1;stroke:none;font-family:Sans;-inkscape-font-specification:Sans"
         x="168.78619"
         y="118.52914"
         id="text4166"
         sodipodi:linespacing="125%"><tspan
           sodipodi:role="line"
           id="tspan4188"
           x="168.78619"
           y="118.52914">18</tspan></text>
    </g>
  </g>
</svg>
